/* XPM */
static char *find[] = {
/* width height num_colors chars_per_pixel */
"    22    22      256            2",
/* colors */
"`` c None",
"`. c #a7a7b8",
"`# c #a9a9b9",
"`a c #99a8c5",
"`b c #8da8d0",
"`c c #86aad7",
"`d c #9aacc9",
"`e c #a4aabe",
"`f c #a8a8b8",
"`g c #829ec7",
"`h c #45649e",
"`i c #9e9eb0",
"`j c #899ec3",
"`k c #7aafe3",
"`l c #7dc2f6",
"`m c #8ccff7",
"`n c #90d3f8",
"`o c #8fd2f8",
"`p c #89cef7",
"`q c #8eb8dd",
"`r c #9ca2b7",
"`s c #9c9cb0",
"`t c #294683",
"`u c #9292a7",
"`v c #7c98c4",
"`w c #77bcf5",
"`x c #8dd0f7",
"`y c #96d8f8",
"`z c #9bddf9",
"`A c #95d7f8",
"`B c #9fe1f9",
"`C c #a2e3fb",
"`D c #95d3f3",
"`E c #93a1b8",
"`F c #87879f",
"`G c #7c90b6",
"`H c #76bbf5",
"`I c #91d5f8",
"`J c #a4e6fb",
"`K c #b1f1fc",
"`L c #b5f3fd",
"`M c #afeefc",
"`N c #9ee0f9",
"`O c #97d8f8",
"`P c #a2e4fb",
"`Q c #9ed2e9",
"`R c #8c90a8",
"`S c #7491c0",
"`T c #607fb2",
"`U c #808098",
"`V c #74a7dc",
"`W c #89ccf7",
"`X c #a3e4fb",
"`Y c #bcf9fd",
"`Z c #ccfefe",
"`0 c #d0fefe",
"`1 c #aae8fb",
"`2 c #bffbfe",
"`3 c #a7e8fb",
"`4 c #abecfc",
"`5 c #b0f0fc",
"`6 c #b8f7fd",
"`7 c #92acc3",
"`8 c #7f7f97",
".` c #6b89b9",
".. c #5675ab",
".# c #34538f",
".a c #6f7a9c",
".b c #7cc2f5",
".c c #92d5f8",
".d c #cbfefe",
".e c #e2fefe",
".f c #e9fefe",
".g c #a6e7fb",
".h c #caf9fd",
".i c #b7f7fd",
".j c #bdfbfe",
".k c #befcfe",
".l c #c2fdfe",
".m c #aee0e8",
".n c #75758f",
".o c #5c7baf",
".p c #3d5c97",
".q c #33528e",
".r c #647aa7",
".s c #87cbf7",
".t c #97daf9",
".u c #cefefe",
".v c #e7fefe",
".w c #d3f6fd",
".x c #b3f3fd",
".y c #d5fdfe",
".z c #c5fefe",
".A c #c9fefe",
".B c #cafefe",
".C c #c8fefe",
".D c #6b6b87",
".E c #395894",
".F c #355490",
".G c #304d8b",
".H c #243f7d",
".I c #5d80b6",
".J c #99dcf9",
".K c #9addf9",
".L c #a0e0f9",
".M c #aee9fb",
".N c #c9fcfe",
".O c #ddfefe",
".P c #cffefe",
".Q c #d3fefe",
".R c #d6fefe",
".S c #d5fefe",
".T c #d2fefe",
".U c #626280",
".V c #314f8c",
".W c #5a73a2",
".X c #8ed2f8",
".Y c #98dbf9",
".Z c #a8e8fb",
".0 c #b0eefc",
".1 c #b2eefc",
".2 c #c9fbfe",
".3 c #dbfefe",
".4 c #d8fefe",
".5 c #defefe",
".6 c #e1fefe",
".7 c #e0fefe",
".8 c #dafefe",
"#` c #585877",
"#. c #515b81",
"## c #88ccf7",
"#a c #9cdef9",
"#b c #8ed1f8",
"#c c #a6e6fb",
"#d c #b7f3fd",
"#e c #c3fdfe",
"#f c #e8fefe",
"#g c #ecfefe",
"#h c #c4dbe2",
"#i c #4f4f6f",
"#j c #464667",
"#k c #70a2cf",
"#l c #99dbf9",
"#m c #a0e2fb",
"#n c #b2f2fd",
"#o c #e4fefe",
"#p c #f0fefe",
"#q c #f7fefe",
"#r c #f2fefe",
"#s c #7f859c",
"#t c #464668",
"#u c #404063",
"#v c #4a567d",
"#w c #ced7e0",
"#x c #515172",
"#y c #676784",
"#z c #596f97",
"#A c #b3f2fd",
"#B c #bffcfe",
"#C c #cad7e0",
"#D c #5b5c7a",
"#E c #818199",
"#F c #4f5b7f",
"#G c #87b6d2",
"#H c #96a6b7",
"#I c #575877",
"#J c #87879e",
"#K c #a1a1b3",
"#L c #a0928f",
"#M c #be7620",
"#N c #b66d1a",
"#O c #4e5677",
"#P c #5b6886",
"#Q c #5e6a87",
"#R c #606b87",
"#S c #7b7b95",
"#T c #74748e",
"#U c #847678",
"#V c #aa6c27",
"#W c #e09c34",
"#X c #cf7b10",
"#Y c #a66219",
"#Z c #7e9bc5",
"#0 c #985919",
"#1 c #ebcb7c",
"#2 c #f6d78b",
"#3 c #eca839",
"#4 c #c97610",
"#5 c #975819",
"#6 c #274481",
"#7 c #6c8aba",
"#8 c #8d5019",
"a` c #b27a2d",
"a. c #fde89b",
"a# c #f6d688",
"aa c #c3720f",
"ab c #874d19",
"ac c #41609a",
"ad c #26417f",
"ae c #7d4618",
"af c #a8732d",
"ag c #fde99e",
"ah c #f6d687",
"ai c #eca737",
"aj c #bd6c0e",
"ak c #784218",
"al c #89a4cb",
"am c #6f3b18",
"an c #9f6c2e",
"ao c #fde99f",
"ap c #f6d585",
"aq c #eca636",
"ar c #b7680d",
"as c #6a3818",
"at c #33518d",
"au c #613217",
"av c #98672f",
"aw c #fdeba0",
"ax c #f6d384",
"ay c #e29e32",
"az c #693a1d",
"aA c #5f3017",
"aB c #97672f",
"aC c #f2dc96",
"aD c #7f5432",
"aE c #746a79",
"aF c #375692",
"aG c #683919",
"aH c #6c6373",
"aI c #4b4b6b",
"aJ c #000000",
"aK c #000000",
"aL c #000000",
"aM c #000000",
"aN c #000000",
"aO c #000000",
"aP c #000000",
"aQ c #000000",
"aR c #000000",
"aS c #000000",
"aT c #000000",
"aU c #000000",
"aV c #000000",
"aW c #000000",
"aX c #000000",
"aY c #000000",
"aZ c #000000",
"a0 c #000000",
"a1 c #000000",
"a2 c #000000",
"a3 c #000000",
"a4 c #000000",
"a5 c #000000",
"a6 c #000000",
"a7 c #000000",
"a8 c #000000",
/* pixels */
"```````.`#`a`b`c`d`e`f```````````````g`h````",
"`````i`j`k`l`m`n`o`p`q`r`s```````````h`t```g",
"```u`v`w`x`y`z`z`A`B`C`D`E`u```````````````h",
"`F`G`H`I`J`K`L`M`N`O`P`M`Q`R`````````S`T````",
"`U`V`W`X`Y`Z`0`1`2`3`4`5`6`7`8````.`..`h.#``",
".a.b.c`M.d.e.f.g.h.i.j.k.l.m.n````.o`h.p.q``",
".r.s.t`K.u.v.w.x.y.z.A.d.B.C.D````.E.F.G.H``",
".I`m.J.K.L.M`K.N.O.P.Q.R.S.T.U``````.V.H````",
".W.X.Y.Z.0.1.2.3`0.4.5.6.7.8#```````````````",
"#.###a#b#c#d#e.d.R.7#f#g.f#h#i``````````````",
"#j#k#a#l#m#n#e.u.8#o#p#q#r#s#t``````````````",
"#u#v.c`3`J#n#e.u.8#o#p#q#w#x#y``````````````",
"``#u#z#a`K#A#B.d.R.7#f#C#D#E.n``````````````",
"````#u#F#G#A#B.C`0.4#H#I#J#K#L#M#N``````````",
"``````#u#u#O#P#Q#R#u#u#S#T#U#V#W#X#Y````````",
"``#Z.p````````````````````#0#1#2#3#4#5``````",
"```h#6``#7.G``````````````#8a`a.a##3aaab````",
"````````acad````````````````aeafagahaiajak``",
"al`S`T````````````````````````amanaoapaqaras",
".`..`hat```g`h``````````````````auavawaxayaz",
"`T`h.p.q```h`t````````````````````aAaBaCaDaE",
"acaF.G.H````````````````````````````aAaGaHaI"
};
