/* XPM */
static char *dn2[] = {
/* width height num_colors chars_per_pixel */
"    22    22      256            2",
/* colors */
"`` c None",
"`. c #2663be",
"`# c #2560bc",
"`a c #235db9",
"`b c #2259b6",
"`c c #2055b3",
"`d c #1f51b0",
"`e c #1d4dad",
"`f c #1c49aa",
"`g c #1a45a7",
"`h c #1941a4",
"`i c #173da1",
"`j c #16399e",
"`k c #14359b",
"`l c #133198",
"`m c #112d95",
"`n c #102992",
"`o c #0e258f",
"`p c #0d218c",
"`q c #0b1d88",
"`r c #0a1986",
"`s c #2561bd",
"`t c #1f78dd",
"`u c #67b7ff",
"`v c #1e5cc2",
"`w c #081683",
"`x c #245eba",
"`y c #45a6ff",
"`z c #b8dcff",
"`A c #5cb1ff",
"`B c #071280",
"`C c #235ab8",
"`D c #157ce8",
"`E c #7cc0ff",
"`F c #97ccff",
"`G c #8ec8ff",
"`H c #2070d7",
"`I c #060f7e",
"`J c #2157b5",
"`K c #1e56b7",
"`L c #0e80f0",
"`M c #62b3ff",
"`N c #76bcff",
"`O c #4daaff",
"`P c #1891ff",
"`Q c #0086ff",
"`R c #1278e7",
"`S c #061786",
"`T c #050e7c",
"`U c None",
"`V c #1f50b0",
"`W c #1b50b2",
"`X c #0b7def",
"`Y c #46a5ff",
"`Z c #54acff",
"`0 c #4faaff",
"`1 c #128eff",
"`2 c #0170e7",
"`3 c #061787",
"`4 c #050e7d",
"`5 c #1c48aa",
"`6 c #1849ac",
"`7 c #0c7cee",
"`8 c #2e99ff",
".` c #309aff",
".. c #0b8bff",
".# c #061887",
".a c #060f7d",
".b c #1642a7",
".c c #0879ed",
".d c #0d8aff",
".e c #0c8aff",
".f c #0387ff",
".g c #0171e7",
".h c #061987",
".i c #133ba2",
".j c #0476ec",
".k c #0171e8",
".l c #061988",
".m c #06107e",
".n c #1942a5",
".o c #183ea2",
".p c #163a9f",
".q c #15369c",
".r c #133299",
".s c #103aa3",
".t c #062190",
".u c #040b7b",
".v c #030777",
".w c #010374",
".x c #000072",
".y c #1a43a6",
".z c #0f5ac6",
".A c #0674e7",
".B c #0573e7",
".C c #0572e6",
".D c #0571e5",
".E c #027bf2",
".F c #0177ef",
".G c #0168de",
".H c #0167dd",
".I c #0066dd",
".J c #0065dc",
".K c #0032a7",
".L c #1840a3",
".M c #173ca1",
".N c #0476ed",
".O c #0084ff",
".P c #006ce5",
".Q c #16399d",
".R c #133aa1",
".S c #0473ec",
".T c #0082ff",
".U c #006ae5",
".V c #00087b",
".W c #133298",
".X c #10339c",
".Y c #036feb",
".Z c #007fff",
".0 c #0067e5",
".1 c #102a93",
".2 c #0e2c97",
".3 c #0a7df8",
".4 c #0a83ff",
".5 c #097bf6",
".6 c #0d238d",
".7 c #0e33a0",
".8 c #1884f8",
"#` c #198bff",
"#. c #1782f6",
"## c #041a8c",
"#a c #0b1c87",
"#b c #0e2e9b",
"#c c #268af7",
"#d c #2892ff",
"#e c #2589f6",
"#f c #071b8c",
"#g c #081482",
"#h c #0f2a97",
"#i c #3491f7",
"#j c #389aff",
"#k c #3490f6",
"#l c #0a1c8c",
"#m c #050d7c",
"#n c #0f2592",
"#o c #4298f6",
"#p c #47a2ff",
"#q c #0c1e8c",
"#r c #020676",
"#s c #10218e",
"#t c #4b94ed",
"#u c #0f1f8c",
"#v c #010274",
"#w c #000000",
"#x c #000000",
"#y c #000000",
"#z c #000000",
"#A c #000000",
"#B c #000000",
"#C c #000000",
"#D c #000000",
"#E c #000000",
"#F c #000000",
"#G c #000000",
"#H c #000000",
"#I c #000000",
"#J c #000000",
"#K c #000000",
"#L c #000000",
"#M c #000000",
"#N c #000000",
"#O c #000000",
"#P c #000000",
"#Q c #000000",
"#R c #000000",
"#S c #000000",
"#T c #000000",
"#U c #000000",
"#V c #000000",
"#W c #000000",
"#X c #000000",
"#Y c #000000",
"#Z c #000000",
"#0 c #000000",
"#1 c #000000",
"#2 c #000000",
"#3 c #000000",
"#4 c #000000",
"#5 c #000000",
"#6 c #000000",
"#7 c #000000",
"#8 c #000000",
"a` c #000000",
"a. c #000000",
"a# c #000000",
"aa c #000000",
"ab c #000000",
"ac c #000000",
"ad c #000000",
"ae c #000000",
"af c #000000",
"ag c #000000",
"ah c #000000",
"ai c #000000",
"aj c #000000",
"ak c #000000",
"al c #000000",
"am c #000000",
"an c #000000",
"ao c #000000",
"ap c #000000",
"aq c #000000",
"ar c #000000",
"as c #000000",
"at c #000000",
"au c #000000",
"av c #000000",
"aw c #000000",
"ax c #000000",
"ay c #000000",
"az c #000000",
"aA c #000000",
"aB c #000000",
"aC c #000000",
"aD c #000000",
"aE c #000000",
"aF c #000000",
"aG c #000000",
"aH c #000000",
"aI c #000000",
"aJ c #000000",
"aK c #000000",
"aL c #000000",
"aM c #000000",
"aN c #000000",
"aO c #000000",
"aP c #000000",
"aQ c #000000",
"aR c #000000",
"aS c #000000",
"aT c #000000",
"aU c #000000",
"aV c #000000",
"aW c #000000",
"aX c #000000",
"aY c #000000",
"aZ c #000000",
"a0 c #000000",
"a1 c #000000",
"a2 c #000000",
"a3 c #000000",
"a4 c #000000",
"a5 c #000000",
"a6 c #000000",
"a7 c #000000",
"a8 c #000000",
/* pixels */
"```.`#`a`b`c`d`e`f`g`h`i`j`k`l`m`n`o`p`q`r``",
"```s`t`u`u`u`u`u`u`u`u`u`u`u`u`u`u`u`u`v`w``",
"```x`y`z`z`z`z`z`z`z`z`z`z`z`z`z`z`z`z`A`B``",
"```C`D`E`F`F`F`F`F`F`F`F`F`F`F`F`F`F`G`H`I``",
"```J`K`L`M`N`N`N`N`N`N`N`N`N`O`P`Q`P`R`S`T``",
"```U`V`W`X`Y`Z`Z`Z`Z`Z`Z`0`1`Q`Q`Q`2`3`4`U``",
"```U`U`5`6`7`8.`.`.`.``8..`Q`Q`Q`2.#.a`U`U``",
"```U`U`U`h.b.c.d.d.d.e.f`Q`Q`Q.g.h`I`U`U`U``",
"```U`U`U`U`j.i.j`Q`Q`Q`Q`Q`Q.k.l.m`U`U`U`U``",
"```g.n.o.p.q.r.s`Q`Q`Q`Q`Q`Q.t.a.u.v.w.x.x``",
"``.y.z.A.B.C.D.E`Q`Q`Q`Q`Q`Q.F.G.H.I.J.K.x``",
"``.L`Q`Q`Q`Q`Q`Q`Q`Q`Q`Q`Q`Q`Q`Q`Q`Q`Q`Q.x``",
"``.M.N.O.O.O.O.O.O.O.O.O.O.O.O.O.O.O.O.P.x``",
"``.Q.R.S.T.T.T.T.T.T.T.T.T.T.T.T.T.T.U.V.x``",
"```U.W.X.Y.Z.Z.Z.Z.Z.Z.Z.Z.Z.Z.Z.Z.0.V.x`U``",
"```U`U.1.2.3.4.4.4.4.4.4.4.4.4.4.5.V.x`U`U``",
"```U`U`U.6.7.8#`#`#`#`#`#`#`#`#.##.x`U`U`U``",
"```U`U`U`U#a#b#c#d#d#d#d#d#d#e#f.x`U`U`U`U``",
"```U`U`U`U`U#g#h#i#j#j#j#j#k#l.x`U`U`U`U`U``",
"```U`U`U`U`U`U#m#n#o#p#p#o#q.x`U`U`U`U`U`U``",
"```U`U`U`U`U`U`U#r#s#t#t#u.x`U`U`U`U`U`U`U``",
"```U`U`U`U`U`U`U#v.x.x.x.x.x`U`U`U`U`U`U`U``"
};
