/* XPM */
static char *message_reply[] = {
/* width height num_colors chars_per_pixel */
"    22    22      256            2",
/* colors */
"`` c #b4bedc",
"`. c #b7c0dd",
"`# c #b0bbda",
"`a c #acb7d7",
"`b c #a8b3d6",
"`c c #99a6cf",
"`d c None",
"`e c #fbfbfd",
"`f c #f8f9fb",
"`g c #f5f7fa",
"`h c #f1f2f8",
"`i c #eff1f7",
"`j c #eaedf6",
"`k c #e0e5f1",
"`l c #dbdfee",
"`m c #d5dbec",
"`n c #c6cee5",
"`o c #f8f8fb",
"`p c #f0f2f8",
"`q c #ebeef6",
"`r c #e4e7f2",
"`s c #dde1ef",
"`t c #d9ddee",
"`u c #ced4e8",
"`v c #cfd5e9",
"`w c #fcfcfe",
"`x c #f9fafc",
"`y c #f3f4fa",
"`z c #edeff6",
"`A c #e7eaf4",
"`B c #e3e6f2",
"`C c #d9deee",
"`D c #c4cbe4",
"`E c #f2f4f9",
"`F c #eef0f7",
"`G c #e8ebf4",
"`H c #dee3f0",
"`I c #fdfdfe",
"`J c #e1e6f2",
"`K c #d0d6e9",
"`L c #f2f3f9",
"`M c #e5e8f3",
"`N c #8b99c5",
"`O c #eaeef6",
"`P c #e6e9f3",
"`Q c #d7dded",
"`R c #d4daeb",
"`S c #b6bfdd",
"`T c #b0bbdb",
"`U c #afbada",
"`V c #7481b0",
"`W c #c7cfe5",
"`X c #54d065",
"`Y c #4eca5f",
"`Z c #b1bcdb",
"`0 c #7581b1",
"`1 c #f4f5fa",
"`2 c #e9ebf5",
"`3 c #dfe4f0",
"`4 c #89ff99",
"`5 c #4cc85d",
"`6 c #bac3df",
"`7 c #7582b1",
"`8 c #cdd3e8",
".` c #68e479",
".. c #86ff97",
".# c #4bc75c",
".a c #bec7e1",
".b c #7682b1",
".c c #dadeee",
".d c #d2d9ea",
".e c #6ae67b",
".f c #63df74",
".g c #49c55a",
".h c #44c055",
".i c #43bf54",
".j c #42be53",
".k c #40bc51",
".l c #005e0d",
".m c #69e57a",
".n c #60dc71",
".o c #79f58a",
".p c #71ed82",
".q c #6ce87d",
".r c #239f34",
".s c #005c0d",
".t c #67e378",
".u c #57d368",
".v c #50cc61",
".w c #3bb74c",
".x c #35b146",
".y c #2fab40",
".z c #005a0d",
".A c #e0e4f1",
".B c #64e075",
".C c #5eda6f",
".D c #52ce63",
".E c #36b247",
".F c #31ad42",
".G c #2ca83d",
".H c #00590d",
".I c #dce0ef",
".J c #3eba4f",
".K c #55d166",
".L c #48c459",
".M c #00570d",
".N c #00610e",
".O c #00540c",
".P c #d6dcec",
".Q c #7784b2",
".R c #dfe3f0",
".S c #1c982d",
".T c #f7f8fb",
".U c #00550c",
".V c #cbd2e7",
".W c #b9c4de",
".X c #848fba",
".Y c #7f8cb8",
".Z c #808db9",
".0 c #7886b5",
".1 c #000000",
".2 c #000000",
".3 c #000000",
".4 c #000000",
".5 c #000000",
".6 c #000000",
".7 c #000000",
".8 c #000000",
"#` c #000000",
"#. c #000000",
"## c #000000",
"#a c #000000",
"#b c #000000",
"#c c #000000",
"#d c #000000",
"#e c #000000",
"#f c #000000",
"#g c #000000",
"#h c #000000",
"#i c #000000",
"#j c #000000",
"#k c #000000",
"#l c #000000",
"#m c #000000",
"#n c #000000",
"#o c #000000",
"#p c #000000",
"#q c #000000",
"#r c #000000",
"#s c #000000",
"#t c #000000",
"#u c #000000",
"#v c #000000",
"#w c #000000",
"#x c #000000",
"#y c #000000",
"#z c #000000",
"#A c #000000",
"#B c #000000",
"#C c #000000",
"#D c #000000",
"#E c #000000",
"#F c #000000",
"#G c #000000",
"#H c #000000",
"#I c #000000",
"#J c #000000",
"#K c #000000",
"#L c #000000",
"#M c #000000",
"#N c #000000",
"#O c #000000",
"#P c #000000",
"#Q c #000000",
"#R c #000000",
"#S c #000000",
"#T c #000000",
"#U c #000000",
"#V c #000000",
"#W c #000000",
"#X c #000000",
"#Y c #000000",
"#Z c #000000",
"#0 c #000000",
"#1 c #000000",
"#2 c #000000",
"#3 c #000000",
"#4 c #000000",
"#5 c #000000",
"#6 c #000000",
"#7 c #000000",
"#8 c #000000",
"a` c #000000",
"a. c #000000",
"a# c #000000",
"aa c #000000",
"ab c #000000",
"ac c #000000",
"ad c #000000",
"ae c #000000",
"af c #000000",
"ag c #000000",
"ah c #000000",
"ai c #000000",
"aj c #000000",
"ak c #000000",
"al c #000000",
"am c #000000",
"an c #000000",
"ao c #000000",
"ap c #000000",
"aq c #000000",
"ar c #000000",
"as c #000000",
"at c #000000",
"au c #000000",
"av c #000000",
"aw c #000000",
"ax c #000000",
"ay c #000000",
"az c #000000",
"aA c #000000",
"aB c #000000",
"aC c #000000",
"aD c #000000",
"aE c #000000",
"aF c #000000",
"aG c #000000",
"aH c #000000",
"aI c #000000",
"aJ c #000000",
"aK c #000000",
"aL c #000000",
"aM c #000000",
"aN c #000000",
"aO c #000000",
"aP c #000000",
"aQ c #000000",
"aR c #000000",
"aS c #000000",
"aT c #000000",
"aU c #000000",
"aV c #000000",
"aW c #000000",
"aX c #000000",
"aY c #000000",
"aZ c #000000",
"a0 c #000000",
"a1 c #000000",
"a2 c #000000",
"a3 c #000000",
"a4 c #000000",
"a5 c #000000",
"a6 c #000000",
"a7 c #000000",
"a8 c #000000",
/* pixels */
"```.`.`.`.`.`.`#`a`b`c`c`d`d`d`d`d`d`d`d`d`d",
"`.`e`f`g`h`i`j`k`l`m`.`n`c`d`d`d`d`d`d`d`d`d",
"`.`e`o`g`p`i`q`r`s`t`.`u`v`c`d`d`d`d`d`d`d`d",
"`.`w`x`f`y`p`z`A`B`s`.`C`A`D`c`d`d`d`d`d`d`d",
"`.`w`f`f`E`p`F`G`r`H`.`r`I`J`K`c`d`d`d`d`d`d",
"`.`I`o`f`L`p`i`A`M`k`N`N`N`N`N`N`N`d`d`d`d`d",
"`.`I`f`g`y`h`p`O`P`B`Q`Q`R`S`T`U`V`d`d`d`d`d",
"`.`I`g`g`y`p`p`q`A`B`l`R`W`X`Y`Z`0`d`d`d`d`d",
"`.`w`1`g`y`L`p`2`P`3`v`W`X`4`5`6`7`d`d`d`d`d",
"`.`e`g`g`h`i`q`r`k`l`8`X.`...#.a.b`d`d`d`d`d",
"`.`x`p`i`F`F`q.c`R.d`X.e.f...g.h.i.h.i.j.k.l",
"`.`f`p`p`i`q`k`Q`m`X.e.m.n...o.p.q.p.q.`.r.s",
"`.`f`p`p`q`k`s`C`X.m.t.f.u.v.g.w.x.w.x.y.r.z",
"`.`f`h`L`J`k.A`s.s.t.B.C.D`5.h.E.F.E.F.G.r.H",
"`.`f`h`p`B`k`3.I`l.s.J.K.L.r.r.r.r.r.r.r.r.M",
"`.`f`L`2`B`J.A`s`l`l.s.x.h.r.N.z.H.z.H.M.O.O",
"`.`o`h`P`B`J`k`s`l`l.P.s.r.r.l`8.Q`d`d`d`d`d",
"`.`f`i`r`J`k.R`s`l`l`m`m.s.S.s`8.Q`d`d`d`d`d",
"`..T`2`B`k.R`H`l`l.c`m`R.d.s.U.V.Q`d`d`d`d`d",
"`.`f`q`2`A`M`M`J`k`H`l`C`Q`R.d`K.Q`d`d`d`d`d",
".W.X.Y.Z.Z.Z.Z.Z.Z.Z.Z.Z.Y.Y.Y.Y.0`d`d`d`d`d",
"`d`d`d`d`d`d`d`d`d`d`d`d`d`d`d`d`d`d`d`d`d`d"
};
