/* XPM */
static char *resume24_xpm[] = {
"22 22 118 2",
"  	c None",
". 	c #2561BD",
"X 	c #235CB9",
"o 	c #2157B5",
"O 	c #1F51B1",
"+ 	c #166DD4",
"@ 	c #40A1FB",
"# 	c #2788EC",
"$ 	c #1C51B3",
"% 	c #1C48AA",
"& 	c #245DBA",
"* 	c #2F98FB",
"= 	c #EFF7FF",
"- 	c #E0F0FF",
"; 	c #318FEF",
": 	c #1848AC",
"> 	c #183FA3",
", 	c #2259B6",
"< 	c #37A0FF",
"1 	c #DDEEFF",
"2 	c #CEE8FF",
"3 	c #2A95F9",
"4 	c #1248B1",
"5 	c #14359B",
"6 	c #2054B3",
"7 	c #329EFF",
"8 	c #C9E5FF",
"9 	c #BCDFFF",
"0 	c #3E9EF9",
"q 	c #0F41AB",
"w 	c #112C94",
"e 	c #1F50B0",
"r 	c #2D9BFF",
"t 	c #B5DBFF",
"y 	c #439FF8",
"u 	c #0C39A5",
"i 	c #0D228D",
"p 	c #1D4BAC",
"a 	c #2899FF",
"s 	c #A0D1FF",
"d 	c #3B9BF8",
"f 	c #09319F",
"g 	c #0A1985",
"h 	c #1B47A9",
"j 	c #2396FF",
"k 	c #8BC6FF",
"l 	c #3396F7",
"z 	c #062A99",
"x 	c #060F7E",
"c 	c #1942A5",
"v 	c #1D93FF",
"b 	c #75BCFF",
"n 	c #2A92F7",
"m 	c #032293",
"M 	c #020676",
"N 	c #183EA2",
"B 	c #1891FF",
"V 	c #5EB1FF",
"C 	c #228DF7",
"Z 	c #001A8E",
"A 	c #000072",
"S 	c #163A9E",
"D 	c #128EFF",
"F 	c #47A6FF",
"G 	c #43A4FF",
"H 	c #0D7BED",
"J 	c #0C8BFF",
"K 	c #309BFF",
"L 	c #2D99FF",
"P 	c #2998FF",
"I 	c #2797FF",
"U 	c #0A79ED",
"Y 	c #133198",
"T 	c #0687FF",
"R 	c #198FFF",
"E 	c #148DFF",
"W 	c #0A89FF",
"Q 	c #0084FF",
"! 	c #007CF6",
"~ 	c #00198C",
"^ 	c #0183FF",
"/ 	c #0485FF",
"( 	c #0383FF",
") 	c #0082FF",
"_ 	c #007AF6",
"` 	c #0F2891",
"' 	c #007FFF",
"] 	c #0181FF",
"[ 	c #0080FF",
"{ 	c #0077F6",
"} 	c #00188C",
"| 	c #0D238D",
" .	c #0A83FF",
"..	c #097BF6",
"X.	c #01188C",
"o.	c #0C1F8A",
"O.	c #198BFF",
"+.	c #1782F6",
"@.	c #041A8C",
"#.	c #0A1A86",
"$.	c #2993FF",
"%.	c #2689F6",
"&.	c #071B8C",
"*.	c #081683",
"=.	c #389AFF",
"-.	c #3086ED",
";.	c #0A1C8C",
":.	c #07117F",
">.	c #4399F7",
",.	c #47A2FF",
"<.	c #3983E5",
"1.	c #040A7B",
"2.	c #050D7C",
"3.	c #2144AB",
"4.	c #519FF6",
"5.	c #407FDC",
"6.	c #050A7B",
"7.	c #010475",
"          . X o O                           ",
"        . + @ # $ %                         ",
"        & * = - ; : >                       ",
"        , < 1 1 2 3 4 5                     ",
"        6 7 8 8 8 9 0 q w                   ",
"        e r t t t t t y u i                 ",
"        p a s s s s s s d f g               ",
"        h j k k k k k k k l z x             ",
"        c v b b b b b b b b n m M           ",
"        N B V V V V V V V V V C Z A         ",
"        S D F F F F G G F F F F H A         ",
"        5 J K K K K L K K K P I U A         ",
"        Y T R R R R R E W Q Q ! ~ A         ",
"        w ^ / / / / ( ) ) ) _ ~ A           ",
"        ` ' ] ] ] [ ' ' ' { } A             ",
"        |  . . . . . . ...X.A               ",
"        o.O.O.O.O.O.O.+.@.A                 ",
"        #.$.$.$.$.$.%.&.A                   ",
"        *.=.=.=.=.-.;.A                     ",
"        :.>.,.,.<.1.A                       ",
"        2.3.4.5.6.A                         ",
"          7.A A A                           "};
