/* XPM */
static char *up1[] = {
/* width height num_colors chars_per_pixel */
"    22    22      256            2",
/* colors */
"`` c None",
"`. c None",
"`# c #245ebb",
"`a c #235cb9",
"`b c #2258b6",
"`c c #2053b2",
"`d c #1e4eae",
"`e c #1c49ab",
"`f c #245fbb",
"`g c #245dba",
"`h c #1c61c4",
"`i c #3396f6",
"`j c #3396f5",
"`k c #1755bb",
"`l c #1a45a7",
"`m c #1840a3",
"`n c #255fbc",
"`o c #1c62c5",
"`p c #58acfa",
"`q c #ebf5ff",
"`r c #58abfa",
"`s c #144eb5",
"`t c #173ca0",
"`u c #15379d",
"`v c #2560bc",
"`w c #1c63c5",
"`x c #4ea7fa",
"`y c #d0e8ff",
"`z c #4da5f9",
"`A c #1146af",
"`B c #133399",
"`C c #122e95",
"`D c #2561bd",
"`E c #1c63c6",
"`F c #43a1fb",
"`G c #b3daff",
"`H c #429ff9",
"`I c #0e3faa",
"`J c #102a92",
"`K c #0e258f",
"`L c #2562bd",
"`M c #1d64c6",
"`N c #379cfb",
"`O c #95cbff",
"`P c #3699f8",
"`Q c #0c38a4",
"`R c #0c218b",
"`S c #0b1c88",
"`T c #2662be",
"`U c #1d64c7",
"`V c #2b96fb",
"`W c #75bcff",
"`X c #6eb9ff",
"`Y c #2a93f8",
"`Z c #09309e",
"`0 c #091884",
"`1 c #071380",
"`2 c #2663be",
"`3 c #1d65c7",
"`4 c #1b8efb",
"`5 c #55acff",
"`6 c #4ea9ff",
"`7 c #43a4ff",
"`8 c #0b84f7",
".` c #062999",
".. c #060f7d",
".# c #040a7a",
".a c #2260bf",
".b c #0a84fb",
".c c #2f9aff",
".d c #339cff",
".e c #2996ff",
".f c #138bff",
".g c #0082ff",
".h c #0173ef",
".i c #041282",
".j c #020676",
".k c #2361bf",
".l c #0b7af2",
".m c #0e87ff",
".n c #118cff",
".o c #128bff",
".p c #0b85ff",
".q c #0480ff",
".r c #046ae5",
".s c #010a7c",
".t c #000072",
".u c #1d80ee",
".v c #1a8cff",
".w c #188bff",
".x c #128aff",
".y c #0d88ff",
".z c #0a87ff",
".A c #0f89ff",
".B c #1569dc",
".C c #235bb8",
".D c #3193fa",
".E c #3398ff",
".F c #2f8ef6",
".G c #2157b5",
".H c #2e70ce",
".I c #489ffa",
".J c #4ca5ff",
".K c #469af6",
".L c #1a3da7",
".M c #1f52b1",
".N c #1c49aa",
".O c #1a44a6",
".P c #183fa3",
".Q c #163a9f",
".R c #14359b",
".S c #123097",
".T c #112b93",
".U c #0f2690",
".V c #0d228c",
".W c #0b1d88",
".X c #050e7d",
".Y c #030979",
".Z c #020475",
".0 c #000000",
".1 c #000000",
".2 c #000000",
".3 c #000000",
".4 c #000000",
".5 c #000000",
".6 c #000000",
".7 c #000000",
".8 c #000000",
"#` c #000000",
"#. c #000000",
"## c #000000",
"#a c #000000",
"#b c #000000",
"#c c #000000",
"#d c #000000",
"#e c #000000",
"#f c #000000",
"#g c #000000",
"#h c #000000",
"#i c #000000",
"#j c #000000",
"#k c #000000",
"#l c #000000",
"#m c #000000",
"#n c #000000",
"#o c #000000",
"#p c #000000",
"#q c #000000",
"#r c #000000",
"#s c #000000",
"#t c #000000",
"#u c #000000",
"#v c #000000",
"#w c #000000",
"#x c #000000",
"#y c #000000",
"#z c #000000",
"#A c #000000",
"#B c #000000",
"#C c #000000",
"#D c #000000",
"#E c #000000",
"#F c #000000",
"#G c #000000",
"#H c #000000",
"#I c #000000",
"#J c #000000",
"#K c #000000",
"#L c #000000",
"#M c #000000",
"#N c #000000",
"#O c #000000",
"#P c #000000",
"#Q c #000000",
"#R c #000000",
"#S c #000000",
"#T c #000000",
"#U c #000000",
"#V c #000000",
"#W c #000000",
"#X c #000000",
"#Y c #000000",
"#Z c #000000",
"#0 c #000000",
"#1 c #000000",
"#2 c #000000",
"#3 c #000000",
"#4 c #000000",
"#5 c #000000",
"#6 c #000000",
"#7 c #000000",
"#8 c #000000",
"a` c #000000",
"a. c #000000",
"a# c #000000",
"aa c #000000",
"ab c #000000",
"ac c #000000",
"ad c #000000",
"ae c #000000",
"af c #000000",
"ag c #000000",
"ah c #000000",
"ai c #000000",
"aj c #000000",
"ak c #000000",
"al c #000000",
"am c #000000",
"an c #000000",
"ao c #000000",
"ap c #000000",
"aq c #000000",
"ar c #000000",
"as c #000000",
"at c #000000",
"au c #000000",
"av c #000000",
"aw c #000000",
"ax c #000000",
"ay c #000000",
"az c #000000",
"aA c #000000",
"aB c #000000",
"aC c #000000",
"aD c #000000",
"aE c #000000",
"aF c #000000",
"aG c #000000",
"aH c #000000",
"aI c #000000",
"aJ c #000000",
"aK c #000000",
"aL c #000000",
"aM c #000000",
"aN c #000000",
"aO c #000000",
"aP c #000000",
"aQ c #000000",
"aR c #000000",
"aS c #000000",
"aT c #000000",
"aU c #000000",
"aV c #000000",
"aW c #000000",
"aX c #000000",
"aY c #000000",
"aZ c #000000",
"a0 c #000000",
"a1 c #000000",
"a2 c #000000",
"a3 c #000000",
"a4 c #000000",
"a5 c #000000",
"a6 c #000000",
"a7 c #000000",
"a8 c #000000",
/* pixels */
"`.`.`.`.`.`.`.`.`.`.`.`.`.`.`.`.`.`.`.`.`.`.",
"`.`.`.`.`.`.`.`.`.`.`.`.`.`.`.`.`.`.`.`.`.`.",
"`.`.`.`.`.`.`.`.`.`.`.`.`.`.`.`.`.`.`.`.`.`.",
"`.`.`.`.`.`.`.`.`.`.`.`.`.`.`.`.`.`.`.`.`.`.",
"`.`.`.`.`.`.`.`.`#`a`b`c`d`e`.`.`.`.`.`.`.`.",
"`.`.`.`.`.`.`.`f`g`h`i`j`k`l`m`.`.`.`.`.`.`.",
"`.`.`.`.`.`.`n`g`o`p`q`q`r`s`t`u`.`.`.`.`.`.",
"`.`.`.`.`.`v`#`w`x`y`y`y`y`z`A`B`C`.`.`.`.`.",
"`.`.`.`.`D`f`E`F`G`G`G`G`G`G`H`I`J`K`.`.`.`.",
"`.`.`.`L`v`M`N`O`O`O`O`O`O`O`O`P`Q`R`S`.`.`.",
"`.`.`T`v`U`V`W`W`W`W`X`X`W`W`W`W`Y`Z`0`1`.`.",
"`.`2`D`3`4`5`5`5`5`5`5`6`5`5`5`5`7`8.`...#`.",
"`.`L.a.b.c.d.d.d.d.d.d.d.d.e.f.g.g.g.h.i.j`.",
"`L.k.l.m.n.n.n.n.n.n.n.o.p.q.q.q.q.q.q.r.s.t",
"`f.u.v.v.w.x.y.z.A.x.w.v.v.v.v.v.v.v.v.v.B.t",
".C.D.E.E.E.E.E.E.E.E.E.E.E.E.E.E.E.E.E.E.F.t",
".G.H.I.J.J.J.J.J.J.J.J.J.J.J.J.J.J.J.J.K.L.t",
".M`d.N.O.P.Q.R.S.T.U.V.W`0`1.X.Y.Z.t.t.t.t.t",
"`.`.`.`.`.`.`.`.`.`.`.`.`.`.`.`.`.`.`.`.`.`.",
"`.`.`.`.`.`.`.`.`.`.`.`.`.`.`.`.`.`.`.`.`.`.",
"`.`.`.`.`.`.`.`.`.`.`.`.`.`.`.`.`.`.`.`.`.`.",
"`.`.`.`.`.`.`.`.`.`.`.`.`.`.`.`.`.`.`.`.`.`."
};
