/* XPM */
static char *up2[] = {
/* width height num_colors chars_per_pixel */
"    22    22      256            2",
/* colors */
"`` c None",
"`. c None",
"`# c #255fbc",
"`a c #245eba",
"`b c #235bb8",
"`c c #2157b5",
"`d c #2053b2",
"`e c #1e4faf",
"`f c #245fbb",
"`g c #1d64c6",
"`h c #0480f6",
"`i c #0480f5",
"`j c #1959be",
"`k c #1d4bac",
"`l c #118afb",
"`m c #c1e1ff",
"`n c #e0f0ff",
"`o c #2d97fa",
"`p c #1654b9",
"`q c #1a44a7",
"`r c #1d65c7",
"`s c #0f89fb",
"`t c #aad6ff",
"`u c #d3eaff",
"`v c #c5e3ff",
"`w c #2794fa",
"`x c #144eb5",
"`y c #173da1",
"`z c #2560bc",
"`A c #0d88fb",
"`B c #90c9ff",
"`C c #b4daff",
"`D c #a8d4ff",
"`E c #2190f9",
"`F c #1248b0",
"`G c #14359b",
"`H c #2561bd",
"`I c #1d66c7",
"`J c #0b87fb",
"`K c #75bcff",
"`L c #92caff",
"`M c #88c5ff",
"`N c #1b8df9",
"`O c #0f42ac",
"`P c #122e95",
"`Q c #2261bf",
"`R c #0886fb",
"`S c #59afff",
"`T c #6fb9ff",
"`U c #68b5ff",
"`V c #1489f8",
"`W c #0f309a",
"`X c #0f2790",
"`Y c #2562bd",
"`Z c #2261c0",
"`0 c #0b80f2",
"`1 c #3ca0ff",
"`2 c #4ca8ff",
"`3 c #48a6ff",
"`4 c #389fff",
"`5 c #2597ff",
"`6 c #0374ea",
"`7 c #0d2a94",
"`8 c #0c1f8a",
".` c #2662be",
".. c #2262c0",
".# c #077ef2",
".a c #1e92ff",
".b c #2896ff",
".c c #2495ff",
".d c #138eff",
".e c #0086ff",
".f c #0273e9",
".g c #0a238f",
".h c #091885",
".i c #077ff2",
".j c #0387ff",
".k c #0687ff",
".l c #0686ff",
".m c #0587ff",
".n c #0272e8",
".o c #081582",
".p c #235db9",
".q c #07117f",
".r c #2259b7",
".s c #1468d0",
".t c #0879eb",
".u c #0778ea",
".v c #0777ea",
".w c #0776e9",
".x c #037df4",
".y c #027af1",
".z c #036de2",
".A c #036ce1",
".B c #026be0",
".C c #026ae0",
".D c #043daf",
".E c #050e7d",
".F c #2156b4",
".G c #1f52b1",
".H c #1e4eae",
".I c #1c4aab",
".J c #1b46a8",
".K c #1942a5",
".L c #1547ae",
".M c #0084ff",
".N c #0b2e9b",
".O c #0a1b86",
".P c #091784",
".Q c #071380",
".R c #060f7e",
".S c #050d7c",
".T c #1743a9",
".U c #0475ed",
".V c #0082ff",
".W c #026fe9",
".X c #0a218e",
".Y c #091884",
".Z c #0473ed",
".0 c #007fff",
".1 c #026be8",
".2 c #071b89",
".3 c #06107e",
".4 c #1a42a5",
".5 c #1845a9",
".6 c #0d77ee",
".7 c #0a83ff",
".8 c #0a6ee7",
"#` c #051484",
"#. c #030979",
"## c #1a43a6",
"#a c #1946aa",
"#b c #1a7dee",
"#c c #198bff",
"#d c #1673e6",
"#e c #040e7f",
"#f c #000173",
"#g c #1a44a6",
"#h c #1a47aa",
"#i c #2683ee",
"#j c #2892ff",
"#k c #2277e5",
"#l c #03097b",
"#m c #000072",
"#n c #2f7ee2",
"#o c #389aff",
"#p c #276ad3",
"#q c #183fa2",
"#r c #47a2ff",
"#s c #173ba0",
"#t c #3470ce",
"#u c #56a9ff",
"#v c #2a54b9",
"#w c #15389d",
"#x c #14349a",
"#y c #123097",
"#z c #112c94",
"#A c #0f2891",
"#B c #0e248e",
"#C c #0c208b",
"#D c #0b1c88",
"#E c #081482",
"#F c #06107f",
"#G c #050c7b",
"#H c #030878",
"#I c #020475",
"#J c #000000",
"#K c #000000",
"#L c #000000",
"#M c #000000",
"#N c #000000",
"#O c #000000",
"#P c #000000",
"#Q c #000000",
"#R c #000000",
"#S c #000000",
"#T c #000000",
"#U c #000000",
"#V c #000000",
"#W c #000000",
"#X c #000000",
"#Y c #000000",
"#Z c #000000",
"#0 c #000000",
"#1 c #000000",
"#2 c #000000",
"#3 c #000000",
"#4 c #000000",
"#5 c #000000",
"#6 c #000000",
"#7 c #000000",
"#8 c #000000",
"a` c #000000",
"a. c #000000",
"a# c #000000",
"aa c #000000",
"ab c #000000",
"ac c #000000",
"ad c #000000",
"ae c #000000",
"af c #000000",
"ag c #000000",
"ah c #000000",
"ai c #000000",
"aj c #000000",
"ak c #000000",
"al c #000000",
"am c #000000",
"an c #000000",
"ao c #000000",
"ap c #000000",
"aq c #000000",
"ar c #000000",
"as c #000000",
"at c #000000",
"au c #000000",
"av c #000000",
"aw c #000000",
"ax c #000000",
"ay c #000000",
"az c #000000",
"aA c #000000",
"aB c #000000",
"aC c #000000",
"aD c #000000",
"aE c #000000",
"aF c #000000",
"aG c #000000",
"aH c #000000",
"aI c #000000",
"aJ c #000000",
"aK c #000000",
"aL c #000000",
"aM c #000000",
"aN c #000000",
"aO c #000000",
"aP c #000000",
"aQ c #000000",
"aR c #000000",
"aS c #000000",
"aT c #000000",
"aU c #000000",
"aV c #000000",
"aW c #000000",
"aX c #000000",
"aY c #000000",
"aZ c #000000",
"a0 c #000000",
"a1 c #000000",
"a2 c #000000",
"a3 c #000000",
"a4 c #000000",
"a5 c #000000",
"a6 c #000000",
"a7 c #000000",
"a8 c #000000",
/* pixels */
"```.`.`.`.`.`.`.`#`a`b`c`d`e`.`.`.`.`.`.`.``",
"```.`.`.`.`.`.`.`f`g`h`i`j`k`.`.`.`.`.`.`.``",
"```.`.`.`.`.`.`f`g`l`m`n`o`p`q`.`.`.`.`.`.``",
"```.`.`.`.`.`#`r`s`t`u`u`v`w`x`y`.`.`.`.`.``",
"```.`.`.`.`z`r`A`B`C`C`C`C`D`E`F`G`.`.`.`.``",
"```.`.`.`H`I`J`K`L`L`L`L`L`L`M`N`O`P`.`.`.``",
"```.`.`H`Q`R`S`T`T`T`T`T`T`T`T`U`V`W`X`.`.``",
"```.`Y`Z`0`1`2`2`2`2`2`2`2`2`3`4`5`6`7`8`.``",
"``.`...#.a.b.b.b.b.b.b.b.c.d.e.e.e.e.f.g.h``",
"```z.i.e.j.k.l.l.l.l.k.m.e.e.e.e.e.e.e.n.o``",
"``.p.e.e.e.e.e.e.e.e.e.e.e.e.e.e.e.e.e.e.q``",
"``.r.s.t.u.v.w.x.e.e.e.e.e.e.y.z.A.B.C.D.E``",
"``.F.G.H.I.J.K.L.M.M.M.M.M.M.N`8.O.P.Q.R.S``",
"```.`.`.`..K.T.U.V.V.V.V.V.V.W.X.Y`.`.`.`.``",
"```.`.`..K.T.Z.0.0.0.0.0.0.0.0.1.2.3`.`.`.``",
"```.`..4.5.6.7.7.7.7.7.7.7.7.7.7.8#`#.`.`.``",
"```.###a#b#c#c#c#c#c#c#c#c#c#c#c#c#d#e#f`.``",
"``#g#h#i#j#j#j#j#j#j#j#j#j#j#j#j#j#j#k#l#m``",
"``.K#n#o#o#o#o#o#o#o#o#o#o#o#o#o#o#o#o#p#m``",
"``#q#r#r#r#r#r#r#r#r#r#r#r#r#r#r#r#r#r#r#m``",
"``#s#t#u#u#u#u#u#u#u#u#u#u#u#u#u#u#u#u#v#m``",
"``#w#x#y#z#A#B#C#D.h#E#F#G#H#I#f#m#m#m#m#m``"
};
