/* XPM */
static char *confup24[] = {
/* width height num_colors chars_per_pixel */
"    22    22      256            2",
/* colors */
"`` c None",
"`. c #e00000",
"`# c #e30700",
"`a c #e71700",
"`b c #e81d00",
"`c c #e30600",
"`d c #d60000",
"`e c #d80000",
"`f c #e5300b",
"`g c #f69968",
"`h c #fbcaaa",
"`i c #fcdac4",
"`j c #e32300",
"`k c #cd0000",
"`l c #d00000",
"`m c #e84c1c",
"`n c #fabe98",
"`o c #fbccae",
"`p c #fbd3ba",
"`q c #fbd1b7",
"`r c #d91700",
"`s c #c50000",
"`t c #c70000",
"`u c #e56646",
"`v c #f7bf9d",
"`w c #f7c9ae",
"`x c #f9c7a8",
"`y c #f8a774",
"`z c #cb0600",
"`A c #bc0000",
"`B c #bf0000",
"`C c #e39b9c",
"`D c #f3f3f6",
"`E c #ededf1",
"`F c #e7e7ec",
"`G c #f5c7ad",
"`H c #fabe99",
"`I c #d93c16",
"`J c #c00000",
"`K c #b40000",
"`L c #b60000",
"`M c #df6e53",
"`N c #f4c4a8",
"`O c #f0c4aa",
"`P c #ebc7b4",
"`Q c #dddde4",
"`R c #f2bfa2",
"`S c #ea7039",
"`T c #b70000",
"`U c #ba0000",
"`V c #ac0000",
"`W c #ad0000",
"`X c #dd9b9c",
"`Y c #f0f0f3",
"`Z c #e6e6ec",
"`0 c #dedee5",
"`1 c #dfc9c2",
"`2 c #d1d1db",
"`3 c #da744c",
"`4 c #b30600",
"`5 c #b00000",
"`6 c #a50000",
"`7 c #c2250a",
"`8 c #d45337",
".` c #e97344",
".. c #e87c54",
".# c #e78461",
".a c #e75006",
".b c #f47729",
".c c #f58138",
".d c #f58844",
".e c #d1d1da",
".f c #d5bdb7",
".g c #ac8e9c",
".h c #a50a0c",
".i c #a80000",
".j c #9c0000",
".k c #c22e0f",
".l c #ff8a41",
".m c #ff9c5e",
".n c #ffaa75",
".o c #ffbb91",
".p c #fc8d48",
".q c #f86c14",
".r c #f56b1e",
".s c #f26b27",
".t c #c2c2cf",
".u c #b7817c",
".v c #9d0a0c",
".w c #9f0000",
".x c #930000",
".y c #bd3216",
".z c #ff8133",
".A c #ff8538",
".B c #ff904a",
".C c #ff9d5e",
".D c #ff8031",
".E c #fe6302",
".F c #f85f08",
".G c #dd1404",
".H c #e74c16",
".I c #f4792c",
".J c #a38897",
".K c #940a0c",
".L c #970000",
".M c #8b0000",
".N c #b8371e",
".O c #ff8c47",
".P c #ff863c",
".Q c #ff7e2d",
".R c #ff6d12",
".S c #fb6007",
".T c #cb1300",
".U c #cd2103",
".V c #f16914",
".W c #ee610e",
".X c #8d0a0c",
".Y c #8e0000",
".Z c #840000",
".0 c #830000",
".1 c #c9471a",
".2 c #ff7a26",
".3 c #f96c1a",
".4 c #b91503",
".5 c #c02202",
".6 c #f66002",
".7 c #fb6c13",
".8 c #dd8562",
"#` c #7c0000",
"#. c #ae351a",
"## c #ff863a",
"#a c #f8782d",
"#b c #a61707",
"#c c #b22609",
"#d c #f86a11",
"#e c #ff6b0e",
"#f c #ffaa76",
"#g c #dd9881",
"#h c #7d0000",
"#i c #d26400",
"#j c #921900",
"#k c #ad361c",
"#l c #f78340",
"#m c #96190b",
"#n c #a42a10",
"#o c #f87625",
"#p c #ff751e",
"#q c #ff9350",
"#r c #de8a6a",
"#s c #cf6200",
"#t c #d36c0f",
"#u c #e8b076",
"#v c #ad5f5d",
"#w c #840905",
"#x c #a12e16",
"#y c #f88238",
"#z c #ef702a",
"#A c #f77b31",
"#B c #ff9049",
"#C c #ff9d5f",
"#D c #de7e55",
"#E c #cc5f00",
"#F c #df8c23",
"#G c #fceebf",
"#H c #f7ead0",
"#I c #952f2d",
"#J c #8c201f",
"#K c #b94725",
"#L c #e67237",
"#M c #840804",
"#N c #de6025",
"#O c #d65d29",
"#P c #c85c00",
"#Q c #d67809",
"#R c #ffed9b",
"#S c #fff4b9",
"#T c #e6c8a4",
"#U c #b56d60",
"#V c #fff7e1",
"#W c #9f2c00",
"#X c #850a05",
"#Y c #de632b",
"#Z c #ff8132",
"#0 c #f7762a",
"#1 c #850802",
"#2 c #c55a00",
"#3 c #edac21",
"#4 c #ffee92",
"#5 c #fff1a6",
"#6 c #fff7cc",
"#7 c #f8d28a",
"#8 c #c65a00",
"a` c #de6833",
"a. c #f77d37",
"a# c #961909",
"aa c #c25700",
"ab c #ffda3d",
"ac c #ffeb7e",
"ad c #fff0ae",
"ae c #d98726",
"af c #c35800",
"ag c #d66435",
"ah c #951a0d",
"ai c #bd5400",
"aj c #c76504",
"ak c #ffe350",
"al c #ffe86a",
"am c #ffe876",
"an c #ffdc5d",
"ao c #e29415",
"ap c #bf5500",
"aq c #bb5200",
"ar c #e6a713",
"as c #fbcb0d",
"at c #eeac00",
"au c #e19300",
"av c #c86700",
"aw c #bc5300",
"ax c #b74f00",
"ay c #b85000",
"az c #b95000",
"aA c #000000",
"aB c #000000",
"aC c #000000",
"aD c #000000",
"aE c #000000",
"aF c #000000",
"aG c #000000",
"aH c #000000",
"aI c #000000",
"aJ c #000000",
"aK c #000000",
"aL c #000000",
"aM c #000000",
"aN c #000000",
"aO c #000000",
"aP c #000000",
"aQ c #000000",
"aR c #000000",
"aS c #000000",
"aT c #000000",
"aU c #000000",
"aV c #000000",
"aW c #000000",
"aX c #000000",
"aY c #000000",
"aZ c #000000",
"a0 c #000000",
"a1 c #000000",
"a2 c #000000",
"a3 c #000000",
"a4 c #000000",
"a5 c #000000",
"a6 c #000000",
"a7 c #000000",
"a8 c #000000",
/* pixels */
"```````````````````````````````````.`#`a`b`c",
"```````````````````````````````d`e`f`g`h`i`j",
"`````````````````````````````k`l`m`n`o`p`q`r",
"```````````````````````````s`t`u`v`w`x`o`y`z",
"`````````````````````````A`B`C`D`E`F`G`H`I`J",
"```````````````````````K`L`M`N`O`P`Q`R`S`T`U",
"`````````````V`V`V`V`V`W`X`Y`Z`0`1`2`3`4`5``",
"```````````6`7`8.`...#.a.b.c.d.e.f.g.h.i````",
"````````.j.k.l.m.n.o.p.q.r.s.c.t.u.v.w``````",
"``````.x.y.z.A.B.C.D.E.F.G.H.I.J.K.L````````",
"````.M.N.O.P.z.A.Q.R.S.T.U.V.W.X.Y``````````",
"``.Z.Z.Z.Z.Z.0.1.2.3.4.5.6.7.8.0````````````",
"``````````#`#.###a#b#c#d#e#f#g#h````````````",
"````````#i#j#k#l#m#n#o#p#q.n#r#`````````````",
"``````#s#t#u#v#w#x#y#z#A#B#C#D#`````````````",
"````#E#F#G#H#I#J#K#L#M#N.A.B#O#`````````````",
"``#P#Q#R#S#T#U#V#W#X#`#Y#Z#0#1#`````````````",
"``#2#3#4#5#S#6#7#8#`#`a`a.a##```````````````",
"``aaabac#4#5adaeaf``#`agah#`````````````````",
"aiajakalamanaoap````#`#w#```````````````````",
"aqarasatauavawaw````#`#`````````````````````",
"axayayayazaz````````````````````````````````"
};
