/* XPM */
static char *configure[] = {
/* width height num_colors chars_per_pixel */
"    22    22      256            2",
/* colors */
"`` c None",
"`. c #b8b8c7",
"`# c #c7c7d2",
"`a c #d9d9e1",
"`b c #d0d0da",
"`c c #c2c2cf",
"`d c #b8b8c6",
"`e c #b6b6c5",
"`f c #b2b2c2",
"`g c #ceced8",
"`h c #ffffff",
"`i c #ececf0",
"`j c #bbbbc9",
"`k c #afafc0",
"`l c #aaaabc",
"`m c #c9c9d4",
"`n c #fafafb",
"`o c #b9b9c8",
"`p c #a8a8ba",
"`q c #a3a3b6",
"`r c #c4c4d0",
"`s c #f1f1f4",
"`t c #a2a2b5",
"`u c #9999ae",
"`v c #9898ad",
"`w c #9b9baf",
"`x c #fefefe",
"`y c #bcbcc9",
"`z c #9f9fb3",
"`A c #9090a6",
"`B c #a5a5b8",
"`C c #f2f2f5",
"`D c #fbfbfc",
"`E c #cdcdd7",
"`F c #9292a8",
"`G c #a5a5b7",
"`H c #e1e1e7",
"`I c #9191a7",
"`J c #8888a0",
"`K c #9e9eb1",
"`L c #f5f5f7",
"`M c #f4f4f6",
"`N c #d1d1da",
"`O c #8a8aa2",
"`P c #9d9db1",
"`Q c #efeff2",
"`R c #dadae1",
"`S c #8989a1",
"`T c #80809a",
"`U c #9696ab",
"`V c #e5e5ea",
"`W c #eeeef2",
"`X c #83839c",
"`Y c #e7e7ec",
"`Z c #e8e8ed",
"`0 c #d2d2db",
"`1 c #dedee4",
"`2 c #9595ab",
"`3 c #7a7a95",
"`4 c #72728f",
"`5 c #b5b5c4",
"`6 c #e2e2e8",
"`7 c #e2e2e7",
"`8 c #dedee5",
".` c #c8c8d3",
".. c #db952b",
".# c #da942b",
".a c #6c6c8a",
".b c #71718e",
".c c #ceced7",
".d c #dbdbe3",
".e c #bebecb",
".f c #c3c3cf",
".g c #d0a569",
".h c #e1ac30",
".i c #d5902b",
".j c #d38f2a",
".k c #646484",
".l c #6e6e8c",
".m c #ababbc",
".n c #d5d5de",
".o c #d5d5dd",
".p c #ccccd6",
".q c #cda36b",
".r c #db9d28",
".s c #e28b10",
".t c #e7b72c",
".u c #ce8b2a",
".v c #cc892a",
".w c #5c5c7d",
".x c #5b5b7c",
".y c #6d6d8b",
".z c #84849d",
".A c #81819a",
".B c #7b7b96",
".C c #d6d6de",
".D c #cda46e",
".E c #d89a27",
".F c #e99010",
".G c #fd930b",
".H c #ee9310",
".I c #e5b32b",
".J c #c7852a",
".K c #c5832a",
".L c #555578",
".M c #6c6c8b",
".N c #c49c6b",
".O c #d49727",
".P c #ed9d14",
".Q c #fda314",
".R c #ffa414",
".S c #f1a015",
".T c #e4af29",
".U c #bf7f2a",
".V c #bd7d29",
".W c #ac7533",
".X c #cb912a",
".Y c #f3ac1a",
".Z c #feb21d",
".0 c #ffb31d",
".1 c #f5ac1a",
".2 c #e2ab27",
".3 c #b87a29",
".4 c #b67829",
".5 c #b57729",
".6 c #b37529",
".7 c #e2a827",
".8 c #ffc226",
"#` c #ffc327",
"#. c #ffbd24",
"## c #ffbd23",
"#a c #fcba21",
"#b c #e3a626",
"#c c #b17429",
"#d c #af7229",
"#e c #ad7129",
"#f c #ab6f29",
"#g c #dfa526",
"#h c #ffd02e",
"#i c #ffd230",
"#j c #ffb61f",
"#k c #ffa615",
"#l c #ffa112",
"#m c #da9a24",
"#n c #aa6f29",
"#o c #a66b28",
"#p c #a46928",
"#q c #dca126",
"#r c #ffde37",
"#s c #ffaa18",
"#t c #ff9108",
"#u c #ff9c10",
"#v c #ff940a",
"#w c #ffb21b",
"#x c #af7326",
"#y c #9f6528",
"#z c #9d6328",
"#A c #d99d25",
"#B c #ffb51e",
"#C c #ff8904",
"#D c #ff9209",
"#E c #ff930a",
"#F c #ffa915",
"#G c #b57624",
"#H c #986028",
"#I c #965e28",
"#J c #d78719",
"#K c #ffa514",
"#L c #ffcc2c",
"#M c #ffa816",
"#N c #ff9e10",
"#O c #f89d12",
"#P c #9c6326",
"#Q c #905a27",
"#R c #8e5827",
"#S c #cd7b18",
"#T c #ff950b",
"#U c #ff960b",
"#V c #f8930d",
"#W c #aa6820",
"#X c #8e5927",
"#Y c #895527",
"#Z c #875327",
"#0 c #955a23",
"#1 c #a4621f",
"#2 c #8e5725",
"#3 c #885427",
"#4 c #000000",
"#5 c #000000",
"#6 c #000000",
"#7 c #000000",
"#8 c #000000",
"a` c #000000",
"a. c #000000",
"a# c #000000",
"aa c #000000",
"ab c #000000",
"ac c #000000",
"ad c #000000",
"ae c #000000",
"af c #000000",
"ag c #000000",
"ah c #000000",
"ai c #000000",
"aj c #000000",
"ak c #000000",
"al c #000000",
"am c #000000",
"an c #000000",
"ao c #000000",
"ap c #000000",
"aq c #000000",
"ar c #000000",
"as c #000000",
"at c #000000",
"au c #000000",
"av c #000000",
"aw c #000000",
"ax c #000000",
"ay c #000000",
"az c #000000",
"aA c #000000",
"aB c #000000",
"aC c #000000",
"aD c #000000",
"aE c #000000",
"aF c #000000",
"aG c #000000",
"aH c #000000",
"aI c #000000",
"aJ c #000000",
"aK c #000000",
"aL c #000000",
"aM c #000000",
"aN c #000000",
"aO c #000000",
"aP c #000000",
"aQ c #000000",
"aR c #000000",
"aS c #000000",
"aT c #000000",
"aU c #000000",
"aV c #000000",
"aW c #000000",
"aX c #000000",
"aY c #000000",
"aZ c #000000",
"a0 c #000000",
"a1 c #000000",
"a2 c #000000",
"a3 c #000000",
"a4 c #000000",
"a5 c #000000",
"a6 c #000000",
"a7 c #000000",
"a8 c #000000",
/* pixels */
"`````````.`#`a`b`c`d`e``````````````````````",
"`````````f`g`h`h`h`i`j`k````````````````````",
"```````````l`m`h`h`h`n`o`p``````````````````",
"`````````````q`r`h`h`h`s`t``````````````````",
"`u`v```````````w`b`h`h`x`y`u````````````````",
"`z`u`A```````A`B`C`D`D`D`E`F````````````````",
"`G`H`I`J```J`K`i`L`L`M`M`N`O````````````````",
"`P`Q`R`S`T`U`V`W`W`W`W`W`e`X````````````````",
"`S`Y`Z`0`u`1`Z`Z`Z`Z`Z`Z`2`3````````````````",
"`4`5`6`6`6`6`7`7`7`7`8.``r`3...#````````````",
".a.b.c.d.d.d.d.d.d`a.e`j.f.g.h.i.j```````h``",
"``.k.l.m`N.n.n.o.o.p`#.p.q.r.s.t.u.v````````",
"````.w.x.y.z`A.A.B`#.C.D.E.F.G.H.I.J.K``````",
"````````.L.L.L.L.L.M.N.O.P.Q.R.R.S.T.U.V````",
"``````````````````.W.X.Y.Z.0.0.0.0.1.2.3.4``",
"``````````````````.5.6.7.8.8#`#`#.###a#b#c#d",
"````````````````````#e#f#g#h#i#`#j#k#l.0#m#n",
"``````````````````````#o#p#q#r#j#s#t#u#v#w#x",
"````````````````````````#y#z#A.0#B#C#D#E#F#G",
"``````````````````````````#H#I#J#K#L#M#N#O#P",
"````````````````````````````#Q#R#S#T#U#V#W#X",
"``````````````````````````````#Y#Z#0#1#2#3``"
};
