/* XPM */
static char *dn1[] = {
/* width height num_colors chars_per_pixel */
"    22    22      256            2",
/* colors */
"`` c #000000",
"`. c #2663bf",
"`# c #2561bd",
"`a c #235cb9",
"`b c #2157b5",
"`c c #1f52b1",
"`d c #1e4dae",
"`e c #1c48aa",
"`f c #1a44a6",
"`g c #183fa2",
"`h c #163a9e",
"`i c #14359b",
"`j c #123097",
"`k c #102b93",
"`l c #0f268f",
"`m c #0d218c",
"`n c #0b1c88",
"`o c #091784",
"`p c #071380",
"`q c #050e7c",
"`r c #030979",
"`s c #020475",
"`t c #000072",
"`u c #166dd4",
"`v c #2a96fb",
"`w c #359fff",
"`x c #2890f6",
"`y c #0033a7",
"`z c #245dba",
"`A c #329afb",
"`B c #c1e1ff",
"`C c #3094f6",
"`D c #2259b7",
"`E c #1e84ec",
"`F c #9aceff",
"`G c #a4d3ff",
"`H c #156fdc",
"`I c #2055b3",
"`J c #1d54b5",
"`K c #2087ef",
"`L c #7ec0ff",
"`M c #86c4ff",
"`N c #6fb9ff",
"`O c #47a7ff",
"`P c #67b6ff",
"`Q c #1b79e5",
"`R c #00087b",
"`S c None",
"`T c #1d4cac",
"`U c #1a4bae",
"`V c #1887f4",
"`W c #61b2ff",
"`X c #66b5ff",
"`Y c #55adff",
"`Z c #1c93ff",
"`0 c #0086ff",
"`1 c #007ef6",
"`2 c #1b48a9",
"`3 c #1a43a6",
"`4 c #134cb3",
"`5 c #158af9",
"`6 c #47a5ff",
"`7 c #43a4ff",
"`8 c #3ba0ff",
".` c #0588ff",
".. c #00198c",
".# c #183ea2",
".a c #163a9f",
".b c #1044ae",
".c c #1287f9",
".d c #2696ff",
".e c #2394ff",
".f c #1e92ff",
".g c #0387ff",
".h c #007df6",
".i c #14369b",
".j c #133198",
".k c #0e3ca8",
".l c #057ff8",
".m c #0786ff",
".n c #0685ff",
".o c #0082ff",
".p c #007af6",
".q c #112c94",
".r c #0f2891",
".s c #0b34a2",
".t c #047af8",
".u c #0480ff",
".v c #0378f6",
".w c #00188c",
".x c #0e248d",
".y c #0c1f8a",
".z c #0c2e9d",
".A c #1984f7",
".B c #1a8cff",
".C c #1883f6",
".D c #041a8c",
".E c #0a1a86",
".F c #081683",
".G c #0d2a97",
".H c #308ff7",
".I c #3398ff",
".J c #2f8ef6",
".K c #081c8c",
".L c #06117f",
".M c #050c7c",
".N c #0f2491",
".O c #4190ee",
".P c #418fed",
".Q c #0d1e8c",
".R c #030878",
".S c #010475",
".T c #000000",
".U c #000000",
".V c #000000",
".W c #000000",
".X c #000000",
".Y c #000000",
".Z c #000000",
".0 c #000000",
".1 c #000000",
".2 c #000000",
".3 c #000000",
".4 c #000000",
".5 c #000000",
".6 c #000000",
".7 c #000000",
".8 c #000000",
"#` c #000000",
"#. c #000000",
"## c #000000",
"#a c #000000",
"#b c #000000",
"#c c #000000",
"#d c #000000",
"#e c #000000",
"#f c #000000",
"#g c #000000",
"#h c #000000",
"#i c #000000",
"#j c #000000",
"#k c #000000",
"#l c #000000",
"#m c #000000",
"#n c #000000",
"#o c #000000",
"#p c #000000",
"#q c #000000",
"#r c #000000",
"#s c #000000",
"#t c #000000",
"#u c #000000",
"#v c #000000",
"#w c #000000",
"#x c #000000",
"#y c #000000",
"#z c #000000",
"#A c #000000",
"#B c #000000",
"#C c #000000",
"#D c #000000",
"#E c #000000",
"#F c #000000",
"#G c #000000",
"#H c #000000",
"#I c #000000",
"#J c #000000",
"#K c #000000",
"#L c #000000",
"#M c #000000",
"#N c #000000",
"#O c #000000",
"#P c #000000",
"#Q c #000000",
"#R c #000000",
"#S c #000000",
"#T c #000000",
"#U c #000000",
"#V c #000000",
"#W c #000000",
"#X c #000000",
"#Y c #000000",
"#Z c #000000",
"#0 c #000000",
"#1 c #000000",
"#2 c #000000",
"#3 c #000000",
"#4 c #000000",
"#5 c #000000",
"#6 c #000000",
"#7 c #000000",
"#8 c #000000",
"a` c #000000",
"a. c #000000",
"a# c #000000",
"aa c #000000",
"ab c #000000",
"ac c #000000",
"ad c #000000",
"ae c #000000",
"af c #000000",
"ag c #000000",
"ah c #000000",
"ai c #000000",
"aj c #000000",
"ak c #000000",
"al c #000000",
"am c #000000",
"an c #000000",
"ao c #000000",
"ap c #000000",
"aq c #000000",
"ar c #000000",
"as c #000000",
"at c #000000",
"au c #000000",
"av c #000000",
"aw c #000000",
"ax c #000000",
"ay c #000000",
"az c #000000",
"aA c #000000",
"aB c #000000",
"aC c #000000",
"aD c #000000",
"aE c #000000",
"aF c #000000",
"aG c #000000",
"aH c #000000",
"aI c #000000",
"aJ c #000000",
"aK c #000000",
"aL c #000000",
"aM c #000000",
"aN c #000000",
"aO c #000000",
"aP c #000000",
"aQ c #000000",
"aR c #000000",
"aS c #000000",
"aT c #000000",
"aU c #000000",
"aV c #000000",
"aW c #000000",
"aX c #000000",
"aY c #000000",
"aZ c #000000",
"a0 c #000000",
"a1 c #000000",
"a2 c #000000",
"a3 c #000000",
"a4 c #000000",
"a5 c #000000",
"a6 c #000000",
"a7 c #000000",
"a8 c #000000",
/* pixels */
"`S`S`S`S`S`S`S`S`S`S`S`S`S`S`S`S`S`S`S`S`S`S",
"`S`S`S`S`S`S`S`S`S`S`S`S`S`S`S`S`S`S`S`S`S`S",
"`S`S`S`S`S`S`S`S`S`S`S`S`S`S`S`S`S`S`S`S`S`S",
"`S`S`S`S`S`S`S`S`S`S`S`S`S`S`S`S`S`S`S`S`S`S",
"`.`#`a`b`c`d`e`f`g`h`i`j`k`l`m`n`o`p`q`r`s`t",
"`#`u`v`w`w`w`w`w`w`w`w`w`w`w`w`w`w`w`w`x`y`t",
"`z`A`B`B`B`B`B`B`B`B`B`B`B`B`B`B`B`B`B`B`C`t",
"`D`E`F`G`G`G`G`G`G`G`G`G`G`G`G`G`G`G`G`F`H`t",
"`I`J`K`L`M`M`M`M`M`M`M`M`M`M`M`N`O`O`P`Q`R`t",
"`S`T`U`V`W`X`X`X`X`X`X`X`X`Y`Z`0`0`0`1`R`t`S",
"`S`2`3`4`5`6`6`6`6`6`7`6`8.``0`0`0`1..`t`t`S",
"`S`S.#.a.b.c.d.d.d.d.e.f.g`0`0`0.h..`t`t`S`S",
"`S`S`S.i.j.k.l.m.m.m.n.o.o.o.o.p..`t`t`S`S`S",
"`S`S`S`S.q.r.s.t.u.u.u.u.u.u.v.w`t`t`S`S`S`S",
"`S`S`S`S`S.x.y.z.A.B.B.B.B.C.D`t`t`S`S`S`S`S",
"`S`S`S`S`S`S.E.F.G.H.I.I.J.K`t`t`S`S`S`S`S`S",
"`S`S`S`S`S`S`S.L.M.N.O.P.Q`t`t`S`S`S`S`S`S`S",
"`S`S`S`S`S`S`S`S.R.S`t`t`t`t`S`S`S`S`S`S`S`S",
"`S`S`S`S`S`S`S`S`S`S`S`S`S`S`S`S`S`S`S`S`S`S",
"`S`S`S`S`S`S`S`S`S`S`S`S`S`S`S`S`S`S`S`S`S`S",
"`S`S`S`S`S`S`S`S`S`S`S`S`S`S`S`S`S`S`S`S`S`S",
"`S`S`S`S`S`S`S`S`S`S`S`S`S`S`S`S`S`S`S`S`S`S"
};
