/* XPM */
static char *edit[] = {
/* width height num_colors chars_per_pixel */
"    22    22      256            2",
/* colors */
"`` c #cdd1dd",
"`. c #cfd3de",
"`# c #c9ceda",
"`a c #c4c8d5",
"`b c #c1c5d3",
"`c c #b2b7c8",
"`d c #df8921",
"`e c #df9960",
"`f c #c36434",
"`g c #9b1f00",
"`h c #ffffff",
"`i c #fdfefe",
"`j c #f5f7fa",
"`k c #f1f3f8",
"`l c #edeff6",
"`m c #d7ac8a",
"`n c #face00",
"`o c #fed651",
"`p c #fee7c9",
"`q c #eab891",
"`r c #a62e05",
"`s c #f8f9fb",
"`t c #f3f5f9",
"`u c #f0f1f8",
"`v c #e8ae38",
"`w c #fedb00",
"`x c #fea200",
"`y c #fea10a",
"`z c #fe8d2f",
"`A c #b73b08",
"`B c #fbfcfd",
"`C c #f7f8fb",
"`D c #f1d4bb",
"`E c #f8c600",
"`F c #febf00",
"`G c #fe9e00",
"`H c #fe8805",
"`I c #e45a09",
"`J c #f0b24e",
"`K c #fedf00",
"`L c #fea702",
"`M c #fe9e01",
"`N c #fe740e",
"`O c #d26d40",
"`P c #f7e9dc",
"`Q c #f8c201",
"`R c #fecb03",
"`S c #fea705",
"`T c #fe9008",
"`U c #f2660c",
"`V c #916d70",
"`W c #8c91a3",
"`X c #f2b15f",
"`Y c #fee207",
"`Z c #feb20b",
"`0 c #feab0a",
"`1 c #fe8015",
"`2 c #c55220",
"`3 c #c9cdda",
"`4 c #c8ccd9",
"`5 c #747885",
"`6 c #fcf6ee",
"`7 c #f7b708",
"`8 c #fed510",
".` c #feb111",
".. c #fe9f15",
".# c #f87a1a",
".a c #c0938a",
".b c #ccd0dc",
".c c #cacfdb",
".d c #f7c680",
".e c #fee71a",
".f c #fec21a",
".g c #feb518",
".h c #fe9324",
".i c #cf5a1b",
".j c #d5d9e3",
".k c #d4d7e3",
".l c #d3d6e2",
".m c #f7b51e",
".n c #fedc25",
".o c #febb22",
".p c #feb024",
".q c #fe932f",
".r c #c18474",
".s c #d9dce6",
".t c #d6dae4",
".u c #f9d2a0",
".v c #fde22f",
".w c #fecf2f",
".x c #febf2a",
".y c #fea536",
".z c #dc722a",
".A c #dedadf",
".B c #e0e3ec",
".C c #dfe2eb",
".D c #dcdfe9",
".E c #000011",
".F c #f9c139",
".G c #fee741",
".H c #fec537",
".I c #febf36",
".J c #fea545",
".K c #c3785d",
".L c #e6e8f0",
".M c #e1e4ed",
".N c #737784",
".O c #f5d1ac",
".P c #fdde45",
".Q c #fed849",
".R c #fec941",
".S c #feb84b",
".T c #de782b",
".U c #ded1d4",
".V c #e7e9f1",
".W c #e5e7f0",
".X c #e0e3eb",
".Y c #d3d6df",
".Z c #6a6d7b",
".0 c #f6f8fa",
".1 c #f8cb71",
".2 c #feef62",
".3 c #fed151",
".4 c #fecb4e",
".5 c #feb85e",
".6 c #d28c69",
".7 c #ebedf4",
".8 c #e4e7ee",
"#` c #d6d8e0",
"#. c #cfd0da",
"## c #696c7a",
"#a c #f5ca89",
"#b c #fee277",
"#c c #fed45a",
"#d c #fecb61",
"#e c #e48e42",
"#f c #cdb1b0",
"#g c #d7d9e0",
"#h c #d3d5dd",
"#i c #d0d2db",
"#j c #cfd1da",
"#k c #cdcfd8",
"#l c #f1c38e",
"#m c #fee1a6",
"#n c #f8c989",
"#o c #ba6441",
"#p c #d4d6de",
"#q c #d1d3dc",
"#r c #e2b489",
"#s c #f8d6b5",
"#t c #b65d3a",
"#u c #d2cfd3",
"#v c #a17c6a",
"#w c #a38c82",
"#x c #c18167",
"#y c #d9dbe1",
"#z c #d3d5de",
"#A c #dbdde6",
"#B c #a07362",
"#C c #a9715f",
"#D c #dbdde2",
"#E c #d9dbe3",
"#F c #e0e2ea",
"#G c #d5afa9",
"#H c #e7e9ed",
"#I c #e5e7ec",
"#J c #e4e5eb",
"#K c #dee0e8",
"#L c #e8eaf1",
"#M c #eaedf3",
"#N c #e3e6ee",
"#O c #f9fafc",
"#P c #f0f2f8",
"#Q c #eef0f7",
"#R c #d2d6e0",
"#S c None",
"#T c #000000",
"#U c #000000",
"#V c #000000",
"#W c #000000",
"#X c #000000",
"#Y c #000000",
"#Z c #000000",
"#0 c #000000",
"#1 c #000000",
"#2 c #000000",
"#3 c #000000",
"#4 c #000000",
"#5 c #000000",
"#6 c #000000",
"#7 c #000000",
"#8 c #000000",
"a` c #000000",
"a. c #000000",
"a# c #000000",
"aa c #000000",
"ab c #000000",
"ac c #000000",
"ad c #000000",
"ae c #000000",
"af c #000000",
"ag c #000000",
"ah c #000000",
"ai c #000000",
"aj c #000000",
"ak c #000000",
"al c #000000",
"am c #000000",
"an c #000000",
"ao c #000000",
"ap c #000000",
"aq c #000000",
"ar c #000000",
"as c #000000",
"at c #000000",
"au c #000000",
"av c #000000",
"aw c #000000",
"ax c #000000",
"ay c #000000",
"az c #000000",
"aA c #000000",
"aB c #000000",
"aC c #000000",
"aD c #000000",
"aE c #000000",
"aF c #000000",
"aG c #000000",
"aH c #000000",
"aI c #000000",
"aJ c #000000",
"aK c #000000",
"aL c #000000",
"aM c #000000",
"aN c #000000",
"aO c #000000",
"aP c #000000",
"aQ c #000000",
"aR c #000000",
"aS c #000000",
"aT c #000000",
"aU c #000000",
"aV c #000000",
"aW c #000000",
"aX c #000000",
"aY c #000000",
"aZ c #000000",
"a0 c #000000",
"a1 c #000000",
"a2 c #000000",
"a3 c #000000",
"a4 c #000000",
"a5 c #000000",
"a6 c #000000",
"a7 c #000000",
"a8 c #000000",
/* pixels */
"```.`.`.`.`.`.`#`a`b`c`d`e`f`g#S#S#S#S#S#S#S",
"`.`h`h`h`h`h`i`j`k`l`m`n`o`p`q`r#S#S#S#S#S#S",
"`.`h`h`h`h`h`i`s`t`u`v`w`x`y`z`A#S#S#S#S#S#S",
"`.`h`h`h`h`h`h`B`C`D`E`F`G`H`I`g#S#S#S#S#S#S",
"`.`h`h`h`h`h`h`B`s`J`K`L`M`N`O`c#S#S#S#S#S#S",
"`.`h`h`h`h`h`h`B`P`Q`R`S`T`U`V`W`W#S#S#S#S#S",
"`.`h`h`h`h`h`h`i`X`Y`Z`0`1`2`3`4`5#S#S#S#S#S",
"`.`h`h`h`h`h`h`6`7`8.`...#.a.b.c`5#S#S#S#S#S",
"`.`h`h`h`h`h`h.d.e.f.g.h.i.j.k.l`5#S#S#S#S#S",
"`.`h`h`h`h`h`i.m.n.o.p.q.r.s.s.t`5#S#S#S#S#S",
"`.`h`h`h`h`h.u.v.w.x.y.z.A.B.C.D`5#S#S.E.E#S",
"`.`h`h`h`h`i.F.G.H.I.J.K.L.M.M.C.N.E.E.E.E.E",
"`.`h`i`i`i.O.P.Q.R.S.T.U.V.W.X.Y.Z.E.E.E.E.E",
"`.`h.0.0.0.1.2.3.4.5.6.7.8#`#.#.##.E.E.E.E.E",
"`.`h`C`C`C#a#b#c#d#e#f#g#h#i#j#k##.E.E.E.E.E",
"`.`h`C`C`C#l`p#m#n#o#`#`#p#q#i#.##.E.E.E.E#S",
"`.`h`C`C`C#r`p#s#t#u#`#`#p#q#i#..Z.E.E#S#S#S",
"`.`h`C`C`C#v#w#x#y#y#`#`#p#q#z#A.N#S#S#S#S#S",
"`.`h`C`C`C#B#C#D#y#y#`#`#E#F.V.W`5#S#S#S#S#S",
"`.`h`j`j`j#G#H#I#I#J#K#L#M.V.L#N`5#S#S#S#S#S",
"`.`h`B`B`B#O#O.0`j`t`k#P#Q.7#M.V`5#S#S#S#S#S",
"#R`5`5`5`5`5`5`5`5`5`5`5`5`5`5`5`5#S#S#S#S#S"
};
