/* XPM */
static char *pause24_xpm[] = {
"22 22 177 2",
"  	c None",
". 	c #2560BC",
"X 	c #235BB9",
"o 	c #2157B5",
"O 	c #1F52B1",
"+ 	c #1D4DAD",
"@ 	c #245EBB",
"# 	c #225AB7",
"$ 	c #2155B4",
"% 	c #1F50B0",
"& 	c #1D4BAC",
"* 	c #2561BD",
"= 	c #2A6ECB",
"- 	c #74AEED",
"; 	c #7CC1FF",
": 	c #81B6F0",
"> 	c #2D76D5",
", 	c #1A44A6",
"< 	c #1840A3",
"1 	c #2663BE",
"2 	c #255FBC",
"3 	c #307FDC",
"4 	c #80BBF6",
"5 	c #75A7E5",
"6 	c #245EBF",
"7 	c #1942A5",
"8 	c #1B68CB",
"9 	c #BEE0FF",
"0 	c #EBF5FF",
"q 	c #DCEEFF",
"w 	c #367BD7",
"e 	c #163B9F",
"r 	c #3B88E1",
"t 	c #1250B9",
"y 	c #16399E",
"u 	c #245DBA",
"i 	c #3F95ED",
"p 	c #D8ECFF",
"a 	c #87C6FF",
"s 	c #1240A8",
"d 	c #215EBD",
"f 	c #79BFFF",
"g 	c #3B8CE7",
"h 	c #14359B",
"j 	c #2259B7",
"k 	c #319DFF",
"l 	c #C5E3FF",
"z 	c #94CCFF",
"x 	c #0E47B2",
"c 	c #122F96",
"v 	c #235BB8",
"b 	c #1963C8",
"n 	c #123097",
"m 	c #2055B3",
"M 	c #2C9BFF",
"N 	c #B1D9FF",
"B 	c #85C4FF",
"V 	c #0D43AF",
"C 	c #102A92",
"Z 	c #1860C6",
"A 	c #112C94",
"S 	c #2798FF",
"D 	c #9CCFFF",
"F 	c #75BDFF",
"G 	c #0C40AD",
"H 	c #0E268F",
"J 	c #2052B1",
"K 	c #175DC3",
"L 	c #0F2891",
"P 	c #1D4CAD",
"I 	c #2296FF",
"U 	c #87C5FF",
"Y 	c #65B5FF",
"T 	c #0B3DAB",
"R 	c #0D228C",
"E 	c #1E4EAE",
"W 	c #155AC1",
"Q 	c #0E248D",
"! 	c #1B48A9",
"~ 	c #1C93FF",
"^ 	c #71BAFF",
"/ 	c #55ADFF",
"( 	c #093AA8",
") 	c #0B1D88",
"_ 	c #1C4AAB",
"` 	c #1456BE",
"' 	c #0C1F8A",
"] 	c #1790FF",
"[ 	c #5BAFFF",
"{ 	c #44A5FF",
"} 	c #0837A5",
"| 	c #0A1985",
" .	c #1A45A7",
"..	c #1353BC",
"X.	c #0A1B87",
"o.	c #183FA3",
"O.	c #118EFF",
"+.	c #45A5FF",
"@.	c #339DFF",
"#.	c #0733A3",
"$.	c #081582",
"%.	c #1941A4",
"&.	c #091784",
"*.	c #0C8BFF",
"=.	c #2E9AFF",
"-.	c #2395FF",
";.	c #0630A0",
":.	c #06107F",
">.	c #173DA1",
",.	c #114DB7",
"<.	c #071280",
"1.	c #15379C",
"2.	c #0586FF",
"3.	c #178EFF",
"4.	c #0D8AFF",
"5.	c #042D9E",
"6.	c #050C7B",
"7.	c #16389E",
"8.	c #0F49B4",
"9.	c #050E7D",
"0.	c #133299",
"q.	c #0082FF",
"w.	c #0384FF",
"e.	c #0385FF",
"r.	c #0182FF",
"t.	c #03289B",
"y.	c #030878",
"u.	c #14349A",
"i.	c #0E45B2",
"p.	c #040A7A",
"a.	c #122E95",
"s.	c #007FFF",
"d.	c #0180FF",
"f.	c #0181FF",
"g.	c #022599",
"h.	c #010375",
"j.	c #0D41AF",
"k.	c #020576",
"l.	c #0A83FF",
"z.	c #032396",
"x.	c #000072",
"c.	c #0E3FAD",
"v.	c #000173",
"b.	c #0E258F",
"n.	c #1A8BFF",
"m.	c #062395",
"M.	c #0F2791",
"N.	c #113EAA",
"B.	c #0D218C",
"V.	c #2993FF",
"C.	c #0A2595",
"Z.	c #0D238D",
"A.	c #133DA8",
"S.	c #2C7AE1",
"D.	c #389AFF",
"F.	c #030A7B",
"G.	c #102B96",
"H.	c #2A74DC",
"J.	c #091885",
"K.	c #1737A1",
"L.	c #47A2FF",
"P.	c #275BC1",
"I.	c #2A63C8",
"U.	c #112895",
"Y.	c #060F7E",
"T.	c #17329B",
"R.	c #3B76D4",
"E.	c #57AAFF",
"W.	c #4B94ED",
"Q.	c #2A54B9",
"!.	c #2B58BC",
"~.	c #468AE5",
"^.	c #407FDC",
"/.	c #152A95",
"(.	c #020677",
").	c #010173",
"_.	c #000172",
"    . X o O +                 @ # $ % &     ",
"  * = - ; : > , <         1 2 3 4 ; 5 6 7   ",
"* 8 9 0 0 0 q w e         . r q 0 0 0 9 t y ",
"u i p p p p p a s         d f p p p p p g h ",
"j k l l l l l z x c     v b z l l l l l k n ",
"m M N N N N N B V C     o Z B N N N N N M A ",
"% S D D D D D F G H     J K F D D D D D S L ",
"P I U U U U U Y T R     E W Y U U U U U I Q ",
"! ~ ^ ^ ^ ^ ^ / ( )     _ ` / ^ ^ ^ ^ ^ ~ ' ",
", ] [ [ [ [ [ { } |      ...{ [ [ [ [ [ ] X.",
"o.O.+.+.+.+.+.@.#.$.    %.t @.+.+.+.+.+.O.&.",
"e *.=.=.=.=.=.-.;.:.    >.,.-.=.=.=.=.=.*.<.",
"1.2.3.3.3.3.3.4.5.6.    7.8.4.3.3.3.3.3.2.9.",
"0.q.w.e.e.e.e.r.t.y.    u.i.r.e.e.e.e.w.q.p.",
"a.s.s.d.f.f.s.s.g.h.    n j.s.s.f.f.d.s.s.k.",
"C l.l.l.l.l.l.l.z.x.    A c.l.l.l.l.l.l.l.v.",
"b.n.n.n.n.n.n.n.m.x.    M.N.n.n.n.n.n.n.n.x.",
"B.V.V.V.V.V.V.V.C.x.    Z.A.V.V.V.V.V.V.V.x.",
") S.D.D.D.D.D.D.F.        G.D.D.D.D.D.D.H.x.",
"J.K.L.L.L.L.L.P.x.        &.I.L.L.L.L.L.U.x.",
"  Y.T.R.E.W.Q.x.x.        <.9.!.~.E.^./.x.  ",
"    (.).x.x.x.                k._.x.x.x.    "};
