/* XPM */
static char *reload[] = {
/* width height num_colors chars_per_pixel */
"    22    22      256            2",
/* colors */
"`` c None",
"`. c #902c00",
"`# c #943f00",
"`a c #8a1b00",
"`b c #a54501",
"`c c #ae5410",
"`d c #9c3a00",
"`e c #8b2000",
"`f c #a34606",
"`g c #c37b33",
"`h c #f9ce90",
"`i c #d4904f",
"`j c #861200",
"`k c #9d3c00",
"`l c #a94c05",
"`m c #c77d23",
"`n c #f6c353",
"`o c #ffd766",
"`p c #ffe091",
"`q c #d59353",
"`r c #a84d10",
"`s c #983100",
"`t c #550000",
"`u c #7f1f00",
"`v c #a44603",
"`w c #f4b432",
"`x c #ffdb47",
"`y c #ffd140",
"`z c #ffc335",
"`A c #ffc860",
"`B c #ffd086",
"`C c #fecb8f",
"`D c #e39e66",
"`E c #af5519",
"`F c #8d2500",
"`G c #932d00",
"`H c #b5600f",
"`I c #fac137",
"`J c #ffd240",
"`K c #ffc239",
"`L c #ffb935",
"`M c #ffb536",
"`N c #ffad43",
"`O c #ffbe75",
"`P c #febe89",
"`Q c #bd662b",
"`R c #922d00",
"`S c #871700",
"`T c #af570a",
"`U c #f6b934",
"`V c #ffc73c",
"`W c #f8b434",
"`X c #df8f22",
"`Y c #fba52a",
"`Z c #ff9d28",
"`0 c #ffa04d",
"`1 c #ffb47a",
"`2 c #b85b1e",
"`3 c #831e00",
"`4 c #480000",
"`5 c #3f0000",
"`6 c #5f0000",
"`7 c #7f0000",
"`8 c #850b00",
".` c #aa5007",
".. c #f4b131",
".# c #f2ad2f",
".a c #983700",
".b c #ab4e07",
".c c #db841e",
".d c #ff9825",
".e c #ff9746",
".f c #f69852",
".g c #a44303",
".h c #9d3700",
".i c #b05817",
".j c #bc6f33",
".k c #b66425",
".l c #a14001",
".m c #6f0000",
".n c #aa5108",
".o c #d27c18",
".p c #9d3b00",
".q c #973600",
".r c #da7f1c",
".s c #ff9228",
".t c #ff9440",
".u c #c55f19",
".v c #852800",
".w c #983600",
".x c #ee8928",
".y c #ffd884",
".z c #f7cb99",
".A c #a03e00",
".B c #941500",
".C c #9c3900",
".D c #a23d00",
".E c #a74905",
".F c #fa9726",
".G c #ff8623",
".H c #ed741c",
".I c #9b3900",
".J c #ef8319",
".K c #ffc156",
".L c #edb980",
".M c #9b3800",
".N c #933200",
".O c #df811d",
".P c #ff8c24",
".Q c #fc7b1b",
".R c #a94503",
".S c #973700",
".T c #e77c18",
".U c #ffb850",
".V c #f6bc79",
".W c #a34000",
".X c #822300",
".Y c #ce7417",
".Z c #ff9026",
".0 c #ff7f1e",
".1 c #b14a05",
".2 c #8b2e00",
".3 c #cf6812",
".4 c #ffa93c",
".5 c #ffc57b",
".6 c #b65b13",
".7 c #6a0000",
".8 c #983800",
"#` c #8b2200",
"#. c #872500",
"## c #d27919",
"#a c #ff9427",
"#b c #ff811f",
"#c c #b04905",
"#d c #b55209",
"#e c #ff9929",
"#f c #ffba65",
"#g c #e69546",
"#h c #9b3600",
"#i c #ac4f0a",
"#j c #ab4d07",
"#k c #7f1700",
"#l c #bb5d0d",
"#m c #d06412",
"#n c #cd5c0d",
"#o c #a54101",
"#p c #9a3a00",
"#q c #e87d1a",
"#r c #ff9f37",
"#s c #ffb767",
"#t c #d77f34",
"#u c #9f3c00",
"#v c #7f1200",
"#w c #c77939",
"#x c #f8c795",
"#y c #ac4f0d",
"#z c #831800",
"#A c #a24500",
"#B c #902e00",
"#C c #8a3100",
"#D c #993300",
"#E c #731700",
"#F c #af4e07",
"#G c #fd8f22",
"#H c #ff9a37",
"#I c #ffb262",
"#J c #ef9e55",
"#K c #c06724",
"#L c #db9353",
"#M c #ffe2b5",
"#N c #f7c797",
"#O c #af5618",
"#P c #881800",
"#Q c #8f2f00",
"#R c #b8550a",
"#S c #fe8f22",
"#T c #ff942b",
"#U c #ffa249",
"#V c #ffb56a",
"#W c #ffc488",
"#X c #ffa74b",
"#Y c #ffaf55",
"#Z c #f9c692",
"#0 c #b35f24",
"#1 c #932700",
"#2 c #8e2d00",
"#3 c #b24f07",
"#4 c #eb7e1b",
"#5 c #ff9023",
"#6 c #ff9025",
"#7 c #ff912c",
"#8 c #ff9028",
"a` c #ff8e1f",
"a. c #ffa13b",
"a# c #ffbb79",
"aa c #b0581d",
"ab c #942a00",
"ac c #b65309",
"ad c #d16a14",
"ae c #fe8c23",
"af c #ff8b23",
"ag c #ff8d24",
"ah c #f27c19",
"ai c #c45d10",
"aj c #a64b0f",
"ak c #9e3400",
"al c #2e0000",
"am c #b04d07",
"an c #ff9627",
"ao c #f07e1c",
"ap c #be570b",
"aq c #a13e00",
"ar c #852a00",
"as c #8c2600",
"at c #af4b06",
"au c #9e3d00",
"av c #832b00",
"aw c #9b3b00",
"ax c #832600",
"ay c #000000",
"az c #000000",
"aA c #000000",
"aB c #000000",
"aC c #000000",
"aD c #000000",
"aE c #000000",
"aF c #000000",
"aG c #000000",
"aH c #000000",
"aI c #000000",
"aJ c #000000",
"aK c #000000",
"aL c #000000",
"aM c #000000",
"aN c #000000",
"aO c #000000",
"aP c #000000",
"aQ c #000000",
"aR c #000000",
"aS c #000000",
"aT c #000000",
"aU c #000000",
"aV c #000000",
"aW c #000000",
"aX c #000000",
"aY c #000000",
"aZ c #000000",
"a0 c #000000",
"a1 c #000000",
"a2 c #000000",
"a3 c #000000",
"a4 c #000000",
"a5 c #000000",
"a6 c #000000",
"a7 c #000000",
"a8 c #000000",
/* pixels */
"`````````````````````````.`#````````````````",
"`````````````````````a`b`c`d````````````````",
"`````````````````e`f`g`h`i`j````````````````",
"`````````````k`l`m`n`o`p`q`r`s`t````````````",
"```````````u`v`w`x`y`z`A`B`C`D`E`F``````````",
"`````````````G`H`I`J`K`L`M`N`O`P`Q`R````````",
"```````````````S`T`U`V`W`X`Y`Z`0`1`2`3``````",
"`````4`5`6`7`````8.`...#.a.b.c.d.e.f.g``````",
"``.h.i.j.k.l``````.m.n.o.p``.q.r.s.t.u.v````",
"``.w.x.y.z.A````````.B.C.D````.E.F.G.H`d````",
"``.I.J.K.L.M``````````````````.N.O.P.Q.R````",
"``.S.T.U.V.W``````````````````.X.Y.Z.0.1````",
"``.2.3.4.5.6.7````.8#`````````#.###a#b#c````",
"```6#d#e#f#g#h```5#i#j#k``````.S#l#m#n#o````",
"````#p#q#r#s#t#u#v#w#x#y#z````#A#B.v#C#D````",
"````#E#F#G#H#I#J#K#L#M#N#O#P````````````````",
"``````#Q#R#S#T#U#V#W#X#Y#Z#0#1``````````````",
"````````#2#3#4#5#6#7#8a`a.a#aaab````````````",
"``````````#v`dacadaeafagahaiajak````````````",
"``````````````alamanaoapaqar````````````````",
"``````````````asatapauav````````````````````",
"``````````````#Aawax````````````````````````"
};
